<?xml version="1.0" encoding="UTF-8" standalone="no"?>
<!-- Created with Inkscape (http://www.inkscape.org/) -->
<svg
   xmlns:dc="http://purl.org/dc/elements/1.1/"
   xmlns:cc="http://web.resource.org/cc/"
   xmlns:rdf="http://www.w3.org/1999/02/22-rdf-syntax-ns#"
   xmlns:svg="http://www.w3.org/2000/svg"
   xmlns="http://www.w3.org/2000/svg"
   xmlns:xlink="http://www.w3.org/1999/xlink"
   xmlns:sodipodi="http://sodipodi.sourceforge.net/DTD/sodipodi-0.dtd"
   xmlns:inkscape="http://www.inkscape.org/namespaces/inkscape"
   width="202.90424"
   height="130.60225"
   id="svg5091"
   sodipodi:version="0.32"
   inkscape:version="0.45.1"
   version="1.0"
   sodipodi:docbase="C:\Documents and Settings\luigi.barbieri\Desktop\per-provv\porth"
   sodipodi:docname="mithochondrion-v11.svg"
   inkscape:output_extension="org.inkscape.output.svg.inkscape">
  <defs
     id="defs3">
    <linearGradient
       id="linearGradient22010">
      <stop
         style="stop-color:#225500;stop-opacity:1;"
         offset="0"
         id="stop22012" />
      <stop
         style="stop-color:#ffffff;stop-opacity:1;"
         offset="1"
         id="stop22014" />
    </linearGradient>
    <linearGradient
       inkscape:collect="always"
       xlink:href="#linearGradient22010"
       id="linearGradient5089"
       gradientUnits="userSpaceOnUse"
       gradientTransform="translate(-0.49855,-0.3111377)"
       x1="152.2224"
       y1="25.431414"
       x2="196.33806"
       y2="50.445648" />
    <filter
       inkscape:collect="always"
       id="filter22098">
      <feGaussianBlur
         inkscape:collect="always"
         stdDeviation="0.60974832"
         id="feGaussianBlur22100" />
    </filter>
    <radialGradient
       inkscape:collect="always"
       xlink:href="#XMLID_21_"
       id="radialGradient5087"
       gradientUnits="userSpaceOnUse"
       gradientTransform="matrix(0.7349908,2.895767e-3,-1.3379025e-3,0.3395779,14.621669,43.530026)"
       cx="236.12218"
       cy="-24.901386"
       fx="236.12218"
       fy="-24.901386"
       r="22.431379" />
    <radialGradient
       id="XMLID_21_"
       cx="-31.6001"
       cy="678.09808"
       r="29.116899"
       gradientTransform="matrix(0.9358,0,0,1.123,190.9792,-630.8741)"
       gradientUnits="userSpaceOnUse">
				<stop
   offset="0"
   style="stop-color:#FFF200"
   id="stop15442" />

				<stop
   offset="1"
   style="stop-color:#BCBDBF"
   id="stop15444" />

			</radialGradient>
    <radialGradient
       inkscape:collect="always"
       xlink:href="#XMLID_21_"
       id="radialGradient5085"
       gradientUnits="userSpaceOnUse"
       gradientTransform="matrix(0.3607158,-3.8100885e-2,2.4716426e-2,0.234,91.159147,49.432624)"
       cx="203.06255"
       cy="-20.582067"
       fx="203.06255"
       fy="-20.582067"
       r="22.431379" />
    <linearGradient
       id="linearGradient22171">
      <stop
         id="stop22173"
         offset="0"
         style="stop-color:#22280b;stop-opacity:1" />
      <stop
         style="stop-color:#2d5016;stop-opacity:0.74901961;"
         offset="0.5"
         id="stop22181" />
      <stop
         id="stop22183"
         offset="0.75"
         style="stop-color:#2d5016;stop-opacity:0.62352941;" />
      <stop
         style="stop-color:#2d5016;stop-opacity:0.49803922;"
         offset="1"
         id="stop22179" />
      <stop
         id="stop22175"
         offset="1"
         style="stop-color:#2d5016;stop-opacity:0;" />
    </linearGradient>
    <linearGradient
       inkscape:collect="always"
       xlink:href="#linearGradient22171"
       id="linearGradient5083"
       gradientUnits="userSpaceOnUse"
       gradientTransform="translate(-5.2347742,32.15647)"
       x1="146.24019"
       y1="11.016835"
       x2="192.9725"
       y2="11.016835" />
  </defs>
  <sodipodi:namedview
     inkscape:document-units="mm"
     id="base"
     pagecolor="#ffffff"
     bordercolor="#666666"
     borderopacity="1.0"
     inkscape:pageopacity="0.0"
     inkscape:pageshadow="2"
     inkscape:zoom="0.35"
     inkscape:cx="350"
     inkscape:cy="520"
     inkscape:current-layer="layer1"
     inkscape:window-width="791"
     inkscape:window-height="573"
     inkscape:window-x="44"
     inkscape:window-y="58" />
  <metadata
     id="metadata4">
    <rdf:RDF>
      <cc:Work
         rdf:about="">
        <dc:format>image/svg+xml</dc:format>
        <dc:type
           rdf:resource="http://purl.org/dc/dcmitype/StillImage" />
      </cc:Work>
    </rdf:RDF>
  </metadata>
  <g
     inkscape:label="Layer 1"
     inkscape:groupmode="layer"
     id="layer1"
     transform="translate(-272.83356,-441.34678)">
    <g
       transform="matrix(4.2847034,0,0,4.9268846,-331.33283,292.71252)"
       id="g26767">
      <path
         style="fill:url(#linearGradient5083);fill-opacity:1;stroke:none;stroke-width:0.25;stroke-linecap:round;stroke-linejoin:round"
         d="M 177.88334,30.174393 C 175.9283,30.225044 173.69947,30.550149 171.17757,31.159077 C 164.40878,32.792341 159.27308,30.843978 150.57198,33.259737 C 144.10112,35.056851 141.3175,41.908938 141.03417,45.830868 C 140.84769,48.408375 141.54407,52.032015 143.83366,54.233506 L 143.89877,54.266328 C 145.09251,55.41434 147.36624,56.619236 149.53501,56.668601 C 158.04859,56.867112 162.95773,53.048996 169.61506,52.953416 C 177.15469,52.845232 182.2266,51.022385 185.8912,45.929336 C 187.05996,44.303424 187.40085,42.585611 187.48627,41.399792 C 187.5519,40.502812 187.46517,39.926442 187.45371,39.85712 C 187.47455,39.783598 187.64955,39.112962 187.71413,38.21598 C 187.79955,37.030159 187.69173,35.399258 186.73756,34.047484 C 186.36881,33.527571 185.99276,33.079606 185.56568,32.668927 C 183.66007,30.837414 181.14176,30.089977 177.88334,30.174393 z "
         id="path26769"
         sodipodi:nodetypes="cssscccsssssssc" />
      <g
         id="g26771"
         transform="translate(-8.3507112,6.2318738)">
        <g
           transform="matrix(0.9889089,0,0,1,1.7663877,0)"
           id="g26773">
          <path
             id="path26775"
             d="M 187.3761,25.313225 C 185.49927,25.361448 183.3596,25.670975 180.9386,26.250724 C 174.4406,27.805725 169.51035,25.950725 161.15735,28.250725 C 154.94536,29.961725 152.2731,36.485474 152.0011,40.219473 C 151.82209,42.673472 152.4906,46.123474 154.6886,48.219474 L 154.7511,48.250724 C 155.89709,49.343725 157.4816,50.016224 159.5636,50.063224 C 167.7366,50.252223 173.0476,47.091724 179.4386,47.000724 C 186.67659,46.897724 191.5456,45.162224 195.0636,40.313223 C 196.1856,38.765222 196.51285,37.129723 196.59485,36.000725 C 196.65786,35.146726 196.5746,34.597975 196.5636,34.531975 C 196.5836,34.461976 196.7516,33.823475 196.8136,32.969475 C 196.8956,31.840476 196.7921,30.287725 195.8761,29.000725 C 195.5221,28.505725 195.1611,28.079225 194.7511,27.688225 C 192.92172,25.944475 190.50416,25.232854 187.3761,25.313225 z "
             style="fill:#ffffff;fill-opacity:1;stroke:none;stroke-width:0.25;stroke-linecap:round;stroke-linejoin:round" />
          <path
             inkscape:transform-center-x="-1.2463748"
             id="path26777"
             d="M 187.4637,25.126724 C 185.58687,25.174947 183.4472,25.484474 181.0262,26.064223 C 174.5282,27.619223 169.59795,25.764224 161.24495,28.064224 C 155.03296,29.775224 152.3607,36.298974 152.0887,40.032973 C 151.90969,42.486971 152.5782,45.936973 154.7762,48.032974 L 154.8387,48.064224 C 155.98469,49.157225 157.5692,49.829724 159.6512,49.876724 C 167.8242,50.065723 173.1352,46.905224 179.5262,46.814224 C 186.76419,46.711224 191.6332,44.975723 195.1512,40.126723 C 196.2732,38.578722 196.60045,36.943223 196.68245,35.814224 C 196.74546,34.960225 196.6622,34.411474 196.6512,34.345474 C 196.6712,34.275475 196.8392,33.636974 196.9012,32.782974 C 196.9832,31.653975 196.8797,30.101224 195.9637,28.814224 C 195.6097,28.319224 195.2487,27.892724 194.8387,27.501723 C 193.00932,25.757974 190.59176,25.046353 187.4637,25.126724 z "
             style="opacity:0.42211058;fill:url(#radialGradient5085);fill-opacity:1;stroke:none;stroke-width:0.25;stroke-linecap:round;stroke-linejoin:round" />
          <path
             style="opacity:0.42211058;fill:url(#radialGradient5087);fill-opacity:1;stroke:none;stroke-width:0.25;stroke-linecap:round;stroke-linejoin:round"
             d="M 187.4637,25.375999 C 185.58687,25.424222 183.4472,25.733749 181.0262,26.313498 C 174.5282,27.868498 169.59795,26.013499 161.24495,28.313499 C 155.03296,30.024499 152.3607,36.548249 152.0887,40.282248 C 151.90969,42.736246 152.5782,46.186248 154.7762,48.282249 L 154.8387,48.313499 C 155.98469,49.4065 157.5692,50.078999 159.6512,50.125999 C 167.8242,50.314998 173.1352,47.154499 179.5262,47.063499 C 186.76419,46.960499 191.6332,45.224998 195.1512,40.375998 C 196.2732,38.827997 196.60045,37.192498 196.68245,36.063499 C 196.74546,35.2095 196.6622,34.660749 196.6512,34.594749 C 196.6712,34.52475 196.8392,33.886249 196.9012,33.032249 C 196.9832,31.90325 196.8797,30.350499 195.9637,29.063499 C 195.6097,28.568499 195.2487,28.141999 194.8387,27.750998 C 193.00932,26.007249 190.59176,25.295628 187.4637,25.375999 z "
             id="path26779"
             inkscape:transform-center-x="-1.2463748" />
          <path
             id="path26781"
             d="M 186.62067,28.687413 C 187.01926,28.703847 187.34842,28.801163 187.58942,29.031163 C 187.88542,29.313162 188.02867,29.672913 187.99567,30.124913 C 187.97867,30.343912 187.91917,30.581663 187.80817,30.843663 C 187.45317,31.697663 187.28367,32.375163 187.24567,32.906163 C 187.20067,33.526162 187.33317,33.942163 187.55817,34.156163 L 187.58942,34.156163 C 188.13541,34.694162 189.27867,34.027163 189.62067,32.406163 C 190.29667,29.211162 191.83592,28.857913 192.90192,29.874913 C 193.15193,30.111912 193.37917,30.446413 193.55817,30.812413 C 194.31918,32.358414 194.28342,33.803913 194.21442,34.749913 C 194.19742,34.985914 194.19517,35.177663 194.18317,35.343663 C 194.17117,35.509665 194.16892,35.732663 194.15192,35.968663 C 194.08292,36.913662 193.87267,38.384163 192.87067,40.156163 C 192.00967,41.678163 190.67742,42.611413 189.83942,41.812413 C 189.45942,41.449413 189.17442,40.719163 189.08942,39.531163 C 189.04442,38.897161 188.85642,38.473663 188.58942,38.218663 C 188.44441,38.093662 187.61967,35.518413 187.12067,35.812413 C 186.29567,36.300413 186.78792,40.816663 187.02692,41.593663 C 187.09892,41.832663 186.29735,41.730902 185.30817,42.249913 C 184.31899,42.768923 184.16183,42.032123 183.62067,38.562413 C 183.11445,35.316756 181.50095,33.738396 181.49567,38.249913 C 181.49379,39.851446 182.3739,42.253762 181.74567,43.312413 C 181.21846,44.200832 180.84496,43.636235 179.68317,43.812413 C 178.02619,44.063682 178.25433,44.012938 177.90192,43.468663 C 177.47139,42.80375 176.79967,40.983913 176.87067,39.999913 C 176.90467,39.530913 176.84367,39.119163 176.62067,38.906163 C 176.49768,38.788163 176.31317,38.737913 176.05817,38.749913 C 174.98117,38.796911 174.12992,39.275413 174.02692,40.687413 C 173.97692,41.366413 174.39167,42.651663 174.49567,43.468663 C 174.53367,43.769664 174.54492,44.032163 174.52692,44.281163 C 174.35892,46.592162 171.96842,46.810413 170.96442,47.062413 C 170.35842,47.214413 169.95317,47.133913 169.68317,46.874913 L 169.62067,46.812413 C 169.03067,46.250414 169.14842,44.612163 169.08942,42.781163 C 169.06742,42.088161 168.87042,41.611663 168.58942,41.343663 L 168.55817,39.968663 C 167.89517,39.337665 165.91817,39.379163 165.80817,40.906163 C 165.79118,41.128163 166.68342,43.235913 166.71442,43.499913 C 166.85342,44.713914 166.91667,45.562413 166.87067,46.187413 C 166.78067,47.436414 166.26692,47.768663 165.15192,48.093663 C 163.94892,48.444664 161.92342,48.731413 161.08942,47.937413 L 160.99567,47.874913 C 160.79667,47.685913 160.68042,47.365913 160.71442,46.874913 C 160.72541,46.746912 160.74192,46.615663 160.77692,46.468663 C 161.04192,45.333664 162.60617,43.491413 162.68317,42.437413 L 161.37067,40.124913 C 161.13668,39.900912 160.13017,39.888663 159.55817,40.093663 C 158.84017,40.349663 158.97092,42.282663 158.90192,43.218663 C 158.83991,44.070662 158.92567,45.033163 158.87067,45.781163 C 158.84867,46.092163 158.79842,46.378663 158.71442,46.593663 C 158.31342,47.626665 157.14592,47.598163 156.02692,46.531163 L 155.99567,46.531163 C 155.71066,46.259164 155.33742,45.944163 155.08942,45.531163 C 153.94342,43.609162 153.84542,40.654913 153.83942,40.499913 C 153.86842,40.340912 154.42067,37.316413 155.87067,35.062413 C 157.20867,32.984414 158.87367,32.125663 159.49567,32.718663 C 159.58968,32.806664 159.64117,32.907413 159.68317,33.062413 C 159.73618,33.259412 159.73842,33.532663 159.71442,33.843663 C 159.66042,34.591662 159.46392,35.584413 159.40192,36.437413 C 159.35192,37.130414 159.40442,37.736163 159.71442,38.031163 C 159.71442,38.031162 159.78292,38.100163 159.90192,38.156163 C 160.02191,38.213164 160.99567,38.593663 160.99567,38.593663 C 162.26767,38.733663 161.83817,37.399663 161.93317,36.093663 C 162.01017,35.039662 161.87992,33.775413 161.77692,32.687413 C 161.76292,32.546412 161.76792,32.409163 161.77692,32.281163 C 161.92692,30.201162 164.92642,29.812913 166.46442,29.874913 C 167.03042,29.897914 167.44317,29.958413 167.68317,30.187413 C 167.90417,30.398413 167.97717,30.744663 167.93317,31.343663 C 167.88818,31.968664 167.72292,32.883163 167.40192,34.156163 C 167.33291,34.433163 167.29292,34.683163 167.27692,34.906163 C 167.23292,35.509162 167.36042,35.905913 167.58942,36.124913 L 168.30817,36.593663 C 168.91717,37.190662 169.41042,35.985913 169.71442,34.249913 C 170.18241,31.587912 170.21367,29.411163 172.24567,29.406163 C 172.93467,29.405163 174.31592,29.228163 175.02692,29.906163 C 175.32638,30.211291 175.51276,30.674628 175.46442,31.343663 C 175.44542,31.592663 175.39117,31.871413 175.30817,32.187413 C 175.08217,33.048414 174.91967,33.820913 174.87067,34.499913 C 174.80667,35.369914 174.92892,36.043913 175.27692,36.374913 C 175.36392,36.448911 175.59167,36.647413 175.99567,36.562413 L 176.21442,36.593663 C 176.92642,36.444665 177.25417,35.769163 177.30817,35.031163 C 177.37917,34.048163 177.12617,32.852413 177.18317,32.062413 C 177.28317,30.679413 178.82767,29.966413 181.99567,29.562413 C 183.62767,29.353913 185.42489,28.638112 186.62067,28.687413 z "
             style="fill:#e3dedb;fill-opacity:0;stroke:#241f1c;stroke-width:1;stroke-linecap:round;stroke-linejoin:round;stroke-miterlimit:4;stroke-dasharray:none;filter:url(#filter22098)" />
        </g>
        <path
           id="path26783"
           d="M 187.25146,25.251361 C 185.37463,25.299584 183.23496,25.609111 180.81396,26.188861 C 174.31596,27.743861 169.38571,25.888861 161.03271,28.188861 C 154.82072,29.899861 152.14846,36.423611 151.87646,40.157611 C 151.69745,42.611609 152.36596,46.061611 154.56396,48.157611 L 154.62646,48.188861 C 155.77245,49.281862 157.35696,49.954361 159.43896,50.001361 C 167.61196,50.19036 172.92296,47.029861 179.31396,46.938861 C 186.55195,46.835861 191.42096,45.100361 194.93896,40.251361 C 196.06096,38.70336 196.38821,37.067861 196.47021,35.938861 C 196.53322,35.084862 196.44996,34.536111 196.43896,34.470111 C 196.45896,34.400112 196.62696,33.761611 196.68896,32.907611 C 196.77096,31.778612 196.66746,30.225861 195.75146,28.938861 C 195.39746,28.443861 195.03646,28.017361 194.62646,27.626361 C 192.79708,25.882611 190.37952,25.17099 187.25146,25.251361 z M 186.65771,28.188861 C 187.0563,28.205295 187.38546,28.302611 187.62646,28.532611 C 187.92246,28.81461 188.06571,29.174361 188.03271,29.626361 C 188.01571,29.84536 187.95621,30.083111 187.84521,30.345111 C 187.49021,31.199111 187.32071,31.876611 187.28271,32.407611 C 187.23771,33.02761 187.37021,33.443611 187.59521,33.657611 L 187.62646,33.657611 C 188.17245,34.19561 189.31571,33.528611 189.65771,31.907611 C 190.33371,28.71261 191.87296,28.359361 192.93896,29.376361 C 193.18897,29.61336 193.41621,29.947861 193.59521,30.313861 C 194.35622,31.859862 194.32046,33.305361 194.25146,34.251361 C 194.23446,34.487362 194.23221,34.679111 194.22021,34.845111 C 194.20821,35.011113 194.20596,35.234111 194.18896,35.470111 C 194.11996,36.41511 193.90971,37.885611 192.90771,39.657611 C 192.04671,41.179611 190.71446,42.112861 189.87646,41.313861 C 189.49646,40.950861 189.21146,40.220611 189.12646,39.032611 C 189.08146,38.398609 188.89346,37.975111 188.62646,37.720111 C 188.48145,37.59511 187.65671,35.019861 187.15771,35.313861 C 186.33271,35.801861 186.82496,40.318111 187.06396,41.095111 C 187.13596,41.334111 186.33439,41.23235 185.34521,41.751361 C 184.35603,42.270371 184.19887,41.533571 183.65771,38.063861 C 183.15149,34.818204 181.53799,33.239844 181.53271,37.751361 C 181.53083,39.352894 182.41094,41.75521 181.78271,42.813861 C 181.2555,43.70228 180.882,43.137683 179.72021,43.313861 C 178.06323,43.56513 178.29137,43.514386 177.93896,42.970111 C 177.50843,42.305198 176.83671,40.485361 176.90771,39.501361 C 176.94171,39.032361 176.88071,38.620611 176.65771,38.407611 C 176.53472,38.289611 176.35021,38.239361 176.09521,38.251361 C 175.01821,38.298359 174.16696,38.776861 174.06396,40.188861 C 174.01396,40.867861 174.42871,42.153111 174.53271,42.970111 C 174.57071,43.271112 174.58196,43.533611 174.56396,43.782611 C 174.39596,46.09361 172.00546,46.311861 171.00146,46.563861 C 170.39546,46.715861 169.99021,46.635361 169.72021,46.376361 L 169.65771,46.313861 C 169.06771,45.751862 169.18546,44.113611 169.12646,42.282611 C 169.10446,41.589609 168.90746,41.113111 168.62646,40.845111 L 168.59521,39.470111 C 167.93221,38.839113 165.95521,38.880611 165.84521,40.407611 C 165.82822,40.629611 166.72046,42.737361 166.75146,43.001361 C 166.89046,44.215362 166.95371,45.063861 166.90771,45.688861 C 166.81771,46.937862 166.30396,47.270111 165.18896,47.595111 C 163.98596,47.946112 161.96046,48.232861 161.12646,47.438861 L 161.03271,47.376361 C 160.83371,47.187361 160.71746,46.867361 160.75146,46.376361 C 160.76245,46.24836 160.77896,46.117111 160.81396,45.970111 C 161.07896,44.835112 162.64321,42.992861 162.72021,41.938861 L 161.40771,39.626361 C 161.17372,39.40236 160.16721,39.390111 159.59521,39.595111 C 158.87721,39.851111 159.00796,41.784111 158.93896,42.720111 C 158.87695,43.57211 158.96271,44.534611 158.90771,45.282611 C 158.88571,45.593611 158.83546,45.880111 158.75146,46.095111 C 158.35046,47.128113 157.18296,47.099611 156.06396,46.032611 L 156.03271,46.032611 C 155.7477,45.760612 155.37446,45.445611 155.12646,45.032611 C 153.98046,43.11061 153.88246,40.156361 153.87646,40.001361 C 153.90546,39.84236 154.45771,36.817861 155.90771,34.563861 C 157.24571,32.485862 158.91071,31.627111 159.53271,32.220111 C 159.62672,32.308112 159.67821,32.408861 159.72021,32.563861 C 159.77322,32.76086 159.77546,33.034111 159.75146,33.345111 C 159.69746,34.09311 159.50096,35.085861 159.43896,35.938861 C 159.38896,36.631862 159.44146,37.237611 159.75146,37.532611 C 159.75146,37.53261 159.81996,37.601611 159.93896,37.657611 C 160.05895,37.714612 161.03271,38.095111 161.03271,38.095111 C 162.30471,38.235111 161.87521,36.901111 161.97021,35.595111 C 162.04721,34.54111 161.91696,33.276861 161.81396,32.188861 C 161.79996,32.04786 161.80496,31.910611 161.81396,31.782611 C 161.96396,29.70261 164.96346,29.314361 166.50146,29.376361 C 167.06746,29.399362 167.48021,29.459861 167.72021,29.688861 C 167.94121,29.899861 168.01421,30.246111 167.97021,30.845111 C 167.92522,31.470112 167.75996,32.384611 167.43896,33.657611 C 167.36995,33.934611 167.32996,34.184611 167.31396,34.407611 C 167.26996,35.01061 167.39746,35.407361 167.62646,35.626361 L 168.34521,36.095111 C 168.95421,36.69211 169.44746,35.487361 169.75146,33.751361 C 170.21945,31.08936 170.25071,28.912611 172.28271,28.907611 C 172.97171,28.906611 174.35296,28.729611 175.06396,29.407611 C 175.36342,29.712739 175.5498,30.176076 175.50146,30.845111 C 175.48246,31.094111 175.42821,31.372861 175.34521,31.688861 C 175.11921,32.549862 174.95671,33.322361 174.90771,34.001361 C 174.84371,34.871362 174.96596,35.545361 175.31396,35.876361 C 175.40096,35.950359 175.62871,36.148861 176.03271,36.063861 L 176.25146,36.095111 C 176.96346,35.946113 177.29121,35.270611 177.34521,34.532611 C 177.41621,33.549611 177.16321,32.353861 177.22021,31.563861 C 177.32021,30.180861 178.86471,29.467861 182.03271,29.063861 C 183.66471,28.855361 185.46193,28.13956 186.65771,28.188861 z "
           style="fill:url(#linearGradient5089);fill-opacity:1;stroke:none;stroke-width:0.25;stroke-linecap:round;stroke-linejoin:round" />
      </g>
    </g>
  </g>
</svg>
